<?xml version="1.0" standalone="no"?><!DOCTYPE svg PUBLIC "-//W3C//DTD SVG 1.1//EN" "http://www.w3.org/Graphics/SVG/1.1/DTD/svg11.dtd"><svg t="1747825183878" class="icon" viewBox="0 0 1024 1024" version="1.1" xmlns="http://www.w3.org/2000/svg" p-id="7224" xmlns:xlink="http://www.w3.org/1999/xlink" width="32" height="32"><path d="M735.984 428.816h52.016c33.136 0 60 26.608 60 59.424v380.32C848 901.408 821.136 928 788 928h-552C202.864 928 176 901.392 176 868.576v-380.32c0-32.832 26.864-59.44 60-59.44h52.016v-110.944c0-122.544 100.304-221.872 224-221.872 123.728 0 224.032 99.328 224.032 221.872V428.8h-0.064v0.016z m-367.808 0h288V315.2c0-78.768-64.48-142.624-144-142.624s-144 63.84-144 142.624v113.616z" fill="#1296db" p-id="7225"></path></svg>